<mxfile host="app.diagrams.net" modified="2021-04-22T20:17:52.596Z" agent="5.0 (Windows NT 10.0; Win64; x64) AppleWebKit/537.36 (KHTML, like Gecko) Chrome/90.0.4430.72 Safari/537.36 Edg/90.0.818.42" etag="lvCc-3tPtstHiXpAKuNn" version="14.6.3" type="github">
  <diagram id="pSwMAhYl6BQPn0MG4o8G" name="Page-1">
    <mxGraphModel dx="2249" dy="794" grid="1" gridSize="10" guides="1" tooltips="1" connect="1" arrows="1" fold="1" page="1" pageScale="1" pageWidth="827" pageHeight="1169" math="0" shadow="0">
      <root>
        <mxCell id="0" />
        <mxCell id="1" parent="0" />
        <mxCell id="8JBp-CPKYnFsB_dmWDKy-2" value="Empresa" style="swimlane;fontStyle=1;align=center;verticalAlign=top;childLayout=stackLayout;horizontal=1;startSize=26;horizontalStack=0;resizeParent=1;resizeParentMax=0;resizeLast=0;collapsible=1;marginBottom=0;" parent="1" vertex="1">
          <mxGeometry x="274" y="70" width="280" height="270" as="geometry" />
        </mxCell>
        <mxCell id="8JBp-CPKYnFsB_dmWDKy-3" value="- nombre: String" style="text;strokeColor=none;fillColor=none;align=left;verticalAlign=top;spacingLeft=4;spacingRight=4;overflow=hidden;rotatable=0;points=[[0,0.5],[1,0.5]];portConstraint=eastwest;" parent="8JBp-CPKYnFsB_dmWDKy-2" vertex="1">
          <mxGeometry y="26" width="280" height="26" as="geometry" />
        </mxCell>
        <mxCell id="8JBp-CPKYnFsB_dmWDKy-6" value="- cuit: int" style="text;strokeColor=none;fillColor=none;align=left;verticalAlign=top;spacingLeft=4;spacingRight=4;overflow=hidden;rotatable=0;points=[[0,0.5],[1,0.5]];portConstraint=eastwest;" parent="8JBp-CPKYnFsB_dmWDKy-2" vertex="1">
          <mxGeometry y="52" width="280" height="26" as="geometry" />
        </mxCell>
        <mxCell id="8JBp-CPKYnFsB_dmWDKy-7" value="- empleados: list" style="text;strokeColor=none;fillColor=none;align=left;verticalAlign=top;spacingLeft=4;spacingRight=4;overflow=hidden;rotatable=0;points=[[0,0.5],[1,0.5]];portConstraint=eastwest;" parent="8JBp-CPKYnFsB_dmWDKy-2" vertex="1">
          <mxGeometry y="78" width="280" height="26" as="geometry" />
        </mxCell>
        <mxCell id="8JBp-CPKYnFsB_dmWDKy-29" value="- recibosDeHaberes: list" style="text;strokeColor=none;fillColor=none;align=left;verticalAlign=top;spacingLeft=4;spacingRight=4;overflow=hidden;rotatable=0;points=[[0,0.5],[1,0.5]];portConstraint=eastwest;" parent="8JBp-CPKYnFsB_dmWDKy-2" vertex="1">
          <mxGeometry y="104" width="280" height="26" as="geometry" />
        </mxCell>
        <mxCell id="8JBp-CPKYnFsB_dmWDKy-4" value="" style="line;strokeWidth=1;fillColor=none;align=left;verticalAlign=middle;spacingTop=-1;spacingLeft=3;spacingRight=3;rotatable=0;labelPosition=right;points=[];portConstraint=eastwest;" parent="8JBp-CPKYnFsB_dmWDKy-2" vertex="1">
          <mxGeometry y="130" width="280" height="8" as="geometry" />
        </mxCell>
        <mxCell id="8JBp-CPKYnFsB_dmWDKy-5" value="+ agregarEmpleado(ArrayList, Empleado): void&#xa;+ agregarRecibos(ArrayList, ReciboHaber): void&#xa;+ totalSueldoBruto(): int&#xa;+ totalSueldoNeto(): int&#xa;+ totalRetenciones(): int&#xa;+ liquidarSueldos(ArrayList): void" style="text;strokeColor=none;fillColor=none;align=left;verticalAlign=top;spacingLeft=4;spacingRight=4;overflow=hidden;rotatable=0;points=[[0,0.5],[1,0.5]];portConstraint=eastwest;" parent="8JBp-CPKYnFsB_dmWDKy-2" vertex="1">
          <mxGeometry y="138" width="280" height="132" as="geometry" />
        </mxCell>
        <mxCell id="8JBp-CPKYnFsB_dmWDKy-8" value="Empleado" style="swimlane;fontStyle=3;align=center;verticalAlign=top;childLayout=stackLayout;horizontal=1;startSize=26;horizontalStack=0;resizeParent=1;resizeParentMax=0;resizeLast=0;collapsible=1;marginBottom=0;" parent="1" vertex="1">
          <mxGeometry x="260" y="480" width="280" height="432" as="geometry" />
        </mxCell>
        <mxCell id="8JBp-CPKYnFsB_dmWDKy-9" value="&#xa;- nombre: String&#xa;- direccion: String&#xa;- tieneConyuge: boolean&#xa;- fechaNacimiento: Date&#xa;- sueldoBasico: int" style="text;strokeColor=none;fillColor=none;align=left;verticalAlign=top;spacingLeft=4;spacingRight=4;overflow=hidden;rotatable=0;points=[[0,0.5],[1,0.5]];portConstraint=eastwest;" parent="8JBp-CPKYnFsB_dmWDKy-8" vertex="1">
          <mxGeometry y="26" width="280" height="104" as="geometry" />
        </mxCell>
        <mxCell id="8JBp-CPKYnFsB_dmWDKy-10" value="" style="line;strokeWidth=1;fillColor=none;align=left;verticalAlign=middle;spacingTop=-1;spacingLeft=3;spacingRight=3;rotatable=0;labelPosition=right;points=[];portConstraint=eastwest;" parent="8JBp-CPKYnFsB_dmWDKy-8" vertex="1">
          <mxGeometry y="130" width="280" height="8" as="geometry" />
        </mxCell>
        <mxCell id="8JBp-CPKYnFsB_dmWDKy-56" value="&#xa;+ nombre(): String&#xa;+ direccion(): String&#xa;+ tieneConyuge(): Boolean&#xa;+ fechaNacimiento(): Date" style="text;strokeColor=none;fillColor=none;align=left;verticalAlign=top;spacingLeft=4;spacingRight=4;overflow=hidden;rotatable=0;points=[[0,0.5],[1,0.5]];portConstraint=eastwest;fontStyle=0" parent="8JBp-CPKYnFsB_dmWDKy-8" vertex="1">
          <mxGeometry y="138" width="280" height="102" as="geometry" />
        </mxCell>
        <mxCell id="8JBp-CPKYnFsB_dmWDKy-55" value="+ edad(): Int" style="text;strokeColor=none;fillColor=none;align=left;verticalAlign=top;spacingLeft=4;spacingRight=4;overflow=hidden;rotatable=0;points=[[0,0.5],[1,0.5]];portConstraint=eastwest;fontStyle=0" parent="8JBp-CPKYnFsB_dmWDKy-8" vertex="1">
          <mxGeometry y="240" width="280" height="20" as="geometry" />
        </mxCell>
        <mxCell id="8JBp-CPKYnFsB_dmWDKy-11" value="+ sueldoBasico(): int" style="text;strokeColor=none;fillColor=none;align=left;verticalAlign=top;spacingLeft=4;spacingRight=4;overflow=hidden;rotatable=0;points=[[0,0.5],[1,0.5]];portConstraint=eastwest;fontStyle=0" parent="8JBp-CPKYnFsB_dmWDKy-8" vertex="1">
          <mxGeometry y="260" width="280" height="32" as="geometry" />
        </mxCell>
        <mxCell id="8JBp-CPKYnFsB_dmWDKy-15" value="+ sueldoNeto(): int" style="text;strokeColor=none;fillColor=none;align=left;verticalAlign=top;spacingLeft=4;spacingRight=4;overflow=hidden;rotatable=0;points=[[0,0.5],[1,0.5]];portConstraint=eastwest;" parent="8JBp-CPKYnFsB_dmWDKy-8" vertex="1">
          <mxGeometry y="292" width="280" height="26" as="geometry" />
        </mxCell>
        <mxCell id="8JBp-CPKYnFsB_dmWDKy-13" value="+ sueldoBruto(): int" style="text;strokeColor=none;fillColor=none;align=left;verticalAlign=top;spacingLeft=4;spacingRight=4;overflow=hidden;rotatable=0;points=[[0,0.5],[1,0.5]];portConstraint=eastwest;fontStyle=2" parent="8JBp-CPKYnFsB_dmWDKy-8" vertex="1">
          <mxGeometry y="318" width="280" height="30" as="geometry" />
        </mxCell>
        <mxCell id="8JBp-CPKYnFsB_dmWDKy-14" value="+ retenciones(): int " style="text;strokeColor=none;fillColor=none;align=left;verticalAlign=top;spacingLeft=4;spacingRight=4;overflow=hidden;rotatable=0;points=[[0,0.5],[1,0.5]];portConstraint=eastwest;fontStyle=2" parent="8JBp-CPKYnFsB_dmWDKy-8" vertex="1">
          <mxGeometry y="348" width="280" height="32" as="geometry" />
        </mxCell>
        <mxCell id="8JBp-CPKYnFsB_dmWDKy-33" value="+ crearReciboHaberes(): ReciboHaber" style="text;strokeColor=none;fillColor=none;align=left;verticalAlign=top;spacingLeft=4;spacingRight=4;overflow=hidden;rotatable=0;points=[[0,0.5],[1,0.5]];portConstraint=eastwest;fontStyle=2" parent="8JBp-CPKYnFsB_dmWDKy-8" vertex="1">
          <mxGeometry y="380" width="280" height="26" as="geometry" />
        </mxCell>
        <mxCell id="8JBp-CPKYnFsB_dmWDKy-60" value="+ crearConceptos(): Conceptos" style="text;strokeColor=none;fillColor=none;align=left;verticalAlign=top;spacingLeft=4;spacingRight=4;overflow=hidden;rotatable=0;points=[[0,0.5],[1,0.5]];portConstraint=eastwest;fontStyle=2" parent="8JBp-CPKYnFsB_dmWDKy-8" vertex="1">
          <mxGeometry y="406" width="280" height="26" as="geometry" />
        </mxCell>
        <mxCell id="8JBp-CPKYnFsB_dmWDKy-16" value="EmpleadoPermanente" style="swimlane;fontStyle=1;align=center;verticalAlign=top;childLayout=stackLayout;horizontal=1;startSize=26;horizontalStack=0;resizeParent=1;resizeParentMax=0;resizeLast=0;collapsible=1;marginBottom=0;" parent="1" vertex="1">
          <mxGeometry x="720" y="585" width="290" height="270" as="geometry">
            <mxRectangle x="720" y="490" width="160" height="26" as="alternateBounds" />
          </mxGeometry>
        </mxCell>
        <mxCell id="8JBp-CPKYnFsB_dmWDKy-17" value="- cantidadHijos: int" style="text;strokeColor=none;fillColor=none;align=left;verticalAlign=top;spacingLeft=4;spacingRight=4;overflow=hidden;rotatable=0;points=[[0,0.5],[1,0.5]];portConstraint=eastwest;" parent="8JBp-CPKYnFsB_dmWDKy-16" vertex="1">
          <mxGeometry y="26" width="290" height="26" as="geometry" />
        </mxCell>
        <mxCell id="8JBp-CPKYnFsB_dmWDKy-24" value="- antiguedad: int" style="text;strokeColor=none;fillColor=none;align=left;verticalAlign=top;spacingLeft=4;spacingRight=4;overflow=hidden;rotatable=0;points=[[0,0.5],[1,0.5]];portConstraint=eastwest;" parent="8JBp-CPKYnFsB_dmWDKy-16" vertex="1">
          <mxGeometry y="52" width="290" height="26" as="geometry" />
        </mxCell>
        <mxCell id="8JBp-CPKYnFsB_dmWDKy-18" value="" style="line;strokeWidth=1;fillColor=none;align=left;verticalAlign=middle;spacingTop=-1;spacingLeft=3;spacingRight=3;rotatable=0;labelPosition=right;points=[];portConstraint=eastwest;" parent="8JBp-CPKYnFsB_dmWDKy-16" vertex="1">
          <mxGeometry y="78" width="290" height="8" as="geometry" />
        </mxCell>
        <mxCell id="8JBp-CPKYnFsB_dmWDKy-19" value="+ new(String, String, String, Boolean,&#xa;            Date, Int, Int, Int): EmpleadoPermanente&#xa;&#xa;+ sueldoBruto(): int" style="text;strokeColor=none;align=left;verticalAlign=top;spacingLeft=4;spacingRight=4;overflow=hidden;rotatable=0;points=[[0,0.5],[1,0.5]];portConstraint=eastwest;labelBorderColor=none;labelBackgroundColor=none;sketch=0;glass=0;rounded=0;fontStyle=0" parent="8JBp-CPKYnFsB_dmWDKy-16" vertex="1">
          <mxGeometry y="86" width="290" height="64" as="geometry" />
        </mxCell>
        <mxCell id="8JBp-CPKYnFsB_dmWDKy-26" value="+ retenciones(): int" style="text;strokeColor=none;fillColor=none;align=left;verticalAlign=top;spacingLeft=4;spacingRight=4;overflow=hidden;rotatable=0;points=[[0,0.5],[1,0.5]];portConstraint=eastwest;" parent="8JBp-CPKYnFsB_dmWDKy-16" vertex="1">
          <mxGeometry y="150" width="290" height="26" as="geometry" />
        </mxCell>
        <mxCell id="8JBp-CPKYnFsB_dmWDKy-34" value="+ crearReciboHaberes(): ReciboHaber&#xa;&#xa;+ crearConceptos(): Conceptos" style="text;strokeColor=none;fillColor=none;align=left;verticalAlign=top;spacingLeft=4;spacingRight=4;overflow=hidden;rotatable=0;points=[[0,0.5],[1,0.5]];portConstraint=eastwest;fontStyle=0" parent="8JBp-CPKYnFsB_dmWDKy-16" vertex="1">
          <mxGeometry y="176" width="290" height="94" as="geometry" />
        </mxCell>
        <mxCell id="8JBp-CPKYnFsB_dmWDKy-20" value="EmpleadoTemporal" style="swimlane;fontStyle=1;align=center;verticalAlign=top;childLayout=stackLayout;horizontal=1;startSize=26;horizontalStack=0;resizeParent=1;resizeParentMax=0;resizeLast=0;collapsible=1;marginBottom=0;" parent="1" vertex="1">
          <mxGeometry x="710" y="250" width="300" height="270" as="geometry" />
        </mxCell>
        <mxCell id="8JBp-CPKYnFsB_dmWDKy-21" value="- finDesignacion: Date" style="text;strokeColor=none;fillColor=none;align=left;verticalAlign=top;spacingLeft=4;spacingRight=4;overflow=hidden;rotatable=0;points=[[0,0.5],[1,0.5]];portConstraint=eastwest;" parent="8JBp-CPKYnFsB_dmWDKy-20" vertex="1">
          <mxGeometry y="26" width="300" height="26" as="geometry" />
        </mxCell>
        <mxCell id="8JBp-CPKYnFsB_dmWDKy-25" value="- horasExtra: int" style="text;strokeColor=none;fillColor=none;align=left;verticalAlign=top;spacingLeft=4;spacingRight=4;overflow=hidden;rotatable=0;points=[[0,0.5],[1,0.5]];portConstraint=eastwest;" parent="8JBp-CPKYnFsB_dmWDKy-20" vertex="1">
          <mxGeometry y="52" width="300" height="26" as="geometry" />
        </mxCell>
        <mxCell id="8JBp-CPKYnFsB_dmWDKy-22" value="" style="line;strokeWidth=1;fillColor=none;align=left;verticalAlign=middle;spacingTop=-1;spacingLeft=3;spacingRight=3;rotatable=0;labelPosition=right;points=[];portConstraint=eastwest;" parent="8JBp-CPKYnFsB_dmWDKy-20" vertex="1">
          <mxGeometry y="78" width="300" height="8" as="geometry" />
        </mxCell>
        <mxCell id="8JBp-CPKYnFsB_dmWDKy-57" value="+ new(String, String, String, Boolean,&#xa;            Date, Int, Date, Int): EmpleadoTemporal" style="text;strokeColor=none;fillColor=none;align=left;verticalAlign=top;spacingLeft=4;spacingRight=4;overflow=hidden;rotatable=0;points=[[0,0.5],[1,0.5]];portConstraint=eastwest;fontStyle=4" parent="8JBp-CPKYnFsB_dmWDKy-20" vertex="1">
          <mxGeometry y="86" width="300" height="44" as="geometry" />
        </mxCell>
        <mxCell id="8JBp-CPKYnFsB_dmWDKy-23" value="+ sueldoBruto(): int" style="text;strokeColor=none;fillColor=none;align=left;verticalAlign=top;spacingLeft=4;spacingRight=4;overflow=hidden;rotatable=0;points=[[0,0.5],[1,0.5]];portConstraint=eastwest;" parent="8JBp-CPKYnFsB_dmWDKy-20" vertex="1">
          <mxGeometry y="130" width="300" height="26" as="geometry" />
        </mxCell>
        <mxCell id="8JBp-CPKYnFsB_dmWDKy-32" value="+ retenciones(): int" style="text;strokeColor=none;fillColor=none;align=left;verticalAlign=top;spacingLeft=4;spacingRight=4;overflow=hidden;rotatable=0;points=[[0,0.5],[1,0.5]];portConstraint=eastwest;" parent="8JBp-CPKYnFsB_dmWDKy-20" vertex="1">
          <mxGeometry y="156" width="300" height="26" as="geometry" />
        </mxCell>
        <mxCell id="8JBp-CPKYnFsB_dmWDKy-35" value="+ crearReciboHaberes(): ReciboHaber&#xa;&#xa;+ crearConceptos(): Conceptos&#xa;" style="text;strokeColor=none;fillColor=none;align=left;verticalAlign=top;spacingLeft=4;spacingRight=4;overflow=hidden;rotatable=0;points=[[0,0.5],[1,0.5]];portConstraint=eastwest;fontStyle=0" parent="8JBp-CPKYnFsB_dmWDKy-20" vertex="1">
          <mxGeometry y="182" width="300" height="88" as="geometry" />
        </mxCell>
        <mxCell id="8JBp-CPKYnFsB_dmWDKy-27" value="Extends" style="endArrow=block;endSize=16;endFill=0;html=1;" parent="1" source="8JBp-CPKYnFsB_dmWDKy-16" target="8JBp-CPKYnFsB_dmWDKy-8" edge="1">
          <mxGeometry x="-0.107" width="160" relative="1" as="geometry">
            <mxPoint x="330" y="610" as="sourcePoint" />
            <mxPoint x="490" y="610" as="targetPoint" />
            <Array as="points">
              <mxPoint x="640" y="690" />
            </Array>
            <mxPoint as="offset" />
          </mxGeometry>
        </mxCell>
        <mxCell id="8JBp-CPKYnFsB_dmWDKy-28" value="Extends" style="endArrow=block;endSize=16;endFill=0;html=1;" parent="1" source="8JBp-CPKYnFsB_dmWDKy-20" target="8JBp-CPKYnFsB_dmWDKy-8" edge="1">
          <mxGeometry width="160" relative="1" as="geometry">
            <mxPoint x="380" y="718" as="sourcePoint" />
            <mxPoint x="518.179211469534" y="560" as="targetPoint" />
          </mxGeometry>
        </mxCell>
        <mxCell id="8JBp-CPKYnFsB_dmWDKy-30" value="Empleado - ReciboHaber" style="endArrow=block;endFill=1;html=1;edgeStyle=orthogonalEdgeStyle;align=left;verticalAlign=top;" parent="1" source="8JBp-CPKYnFsB_dmWDKy-2" target="8JBp-CPKYnFsB_dmWDKy-8" edge="1">
          <mxGeometry x="0.1111" y="-20" relative="1" as="geometry">
            <mxPoint x="570" y="410" as="sourcePoint" />
            <mxPoint x="200" y="260" as="targetPoint" />
            <Array as="points" />
            <mxPoint as="offset" />
          </mxGeometry>
        </mxCell>
        <mxCell id="8JBp-CPKYnFsB_dmWDKy-31" value="1" style="edgeLabel;resizable=0;html=1;align=left;verticalAlign=bottom;" parent="8JBp-CPKYnFsB_dmWDKy-30" connectable="0" vertex="1">
          <mxGeometry x="-1" relative="1" as="geometry">
            <mxPoint x="-24" y="18" as="offset" />
          </mxGeometry>
        </mxCell>
        <mxCell id="8JBp-CPKYnFsB_dmWDKy-36" value="ReciboHaber" style="swimlane;fontStyle=1;align=center;verticalAlign=top;childLayout=stackLayout;horizontal=1;startSize=26;horizontalStack=0;resizeParent=1;resizeParentMax=0;resizeLast=0;collapsible=1;marginBottom=0;" parent="1" vertex="1">
          <mxGeometry x="-140" y="370" width="270" height="260" as="geometry" />
        </mxCell>
        <mxCell id="8JBp-CPKYnFsB_dmWDKy-37" value="- nombreEmpleado: String" style="text;strokeColor=none;fillColor=none;align=left;verticalAlign=top;spacingLeft=4;spacingRight=4;overflow=hidden;rotatable=0;points=[[0,0.5],[1,0.5]];portConstraint=eastwest;" parent="8JBp-CPKYnFsB_dmWDKy-36" vertex="1">
          <mxGeometry y="26" width="270" height="26" as="geometry" />
        </mxCell>
        <mxCell id="8JBp-CPKYnFsB_dmWDKy-40" value="- direccion: String" style="text;strokeColor=none;fillColor=none;align=left;verticalAlign=top;spacingLeft=4;spacingRight=4;overflow=hidden;rotatable=0;points=[[0,0.5],[1,0.5]];portConstraint=eastwest;" parent="8JBp-CPKYnFsB_dmWDKy-36" vertex="1">
          <mxGeometry y="52" width="270" height="26" as="geometry" />
        </mxCell>
        <mxCell id="8JBp-CPKYnFsB_dmWDKy-41" value="- fechaEmision: Date" style="text;strokeColor=none;fillColor=none;align=left;verticalAlign=top;spacingLeft=4;spacingRight=4;overflow=hidden;rotatable=0;points=[[0,0.5],[1,0.5]];portConstraint=eastwest;" parent="8JBp-CPKYnFsB_dmWDKy-36" vertex="1">
          <mxGeometry y="78" width="270" height="26" as="geometry" />
        </mxCell>
        <mxCell id="8JBp-CPKYnFsB_dmWDKy-42" value="- sueldoBruto: int" style="text;strokeColor=none;fillColor=none;align=left;verticalAlign=top;spacingLeft=4;spacingRight=4;overflow=hidden;rotatable=0;points=[[0,0.5],[1,0.5]];portConstraint=eastwest;" parent="8JBp-CPKYnFsB_dmWDKy-36" vertex="1">
          <mxGeometry y="104" width="270" height="26" as="geometry" />
        </mxCell>
        <mxCell id="8JBp-CPKYnFsB_dmWDKy-43" value="- sueldoNeto: int" style="text;strokeColor=none;fillColor=none;align=left;verticalAlign=top;spacingLeft=4;spacingRight=4;overflow=hidden;rotatable=0;points=[[0,0.5],[1,0.5]];portConstraint=eastwest;" parent="8JBp-CPKYnFsB_dmWDKy-36" vertex="1">
          <mxGeometry y="130" width="270" height="26" as="geometry" />
        </mxCell>
        <mxCell id="8JBp-CPKYnFsB_dmWDKy-44" value="- desgloceConceptos: Conceptos" style="text;strokeColor=none;fillColor=none;align=left;verticalAlign=top;spacingLeft=4;spacingRight=4;overflow=hidden;rotatable=0;points=[[0,0.5],[1,0.5]];portConstraint=eastwest;" parent="8JBp-CPKYnFsB_dmWDKy-36" vertex="1">
          <mxGeometry y="156" width="270" height="26" as="geometry" />
        </mxCell>
        <mxCell id="8JBp-CPKYnFsB_dmWDKy-38" value="" style="line;strokeWidth=1;fillColor=none;align=left;verticalAlign=middle;spacingTop=-1;spacingLeft=3;spacingRight=3;rotatable=0;labelPosition=right;points=[];portConstraint=eastwest;" parent="8JBp-CPKYnFsB_dmWDKy-36" vertex="1">
          <mxGeometry y="182" width="270" height="18" as="geometry" />
        </mxCell>
        <mxCell id="8JBp-CPKYnFsB_dmWDKy-58" value="+ new (String, String, Date, Int, Int, Conceptos)" style="text;strokeColor=none;fillColor=none;align=left;verticalAlign=top;spacingLeft=4;spacingRight=4;overflow=hidden;rotatable=0;points=[[0,0.5],[1,0.5]];portConstraint=eastwest;rounded=0;glass=0;labelBackgroundColor=none;sketch=0;html=0;fontStyle=4" parent="8JBp-CPKYnFsB_dmWDKy-36" vertex="1">
          <mxGeometry y="200" width="270" height="60" as="geometry" />
        </mxCell>
        <mxCell id="8JBp-CPKYnFsB_dmWDKy-45" value="Conceptos" style="swimlane;fontStyle=1;align=center;verticalAlign=top;childLayout=stackLayout;horizontal=1;startSize=26;horizontalStack=0;resizeParent=1;resizeParentMax=0;resizeLast=0;collapsible=1;marginBottom=0;" parent="1" vertex="1">
          <mxGeometry x="-140" y="990" width="210" height="126" as="geometry" />
        </mxCell>
        <mxCell id="8JBp-CPKYnFsB_dmWDKy-46" value="- conformacionSueldoBruto: String&#xa;- conformacionRetenciones: String" style="text;strokeColor=none;fillColor=none;align=left;verticalAlign=top;spacingLeft=4;spacingRight=4;overflow=hidden;rotatable=0;points=[[0,0.5],[1,0.5]];portConstraint=eastwest;" parent="8JBp-CPKYnFsB_dmWDKy-45" vertex="1">
          <mxGeometry y="26" width="210" height="54" as="geometry" />
        </mxCell>
        <mxCell id="8JBp-CPKYnFsB_dmWDKy-47" value="" style="line;strokeWidth=1;fillColor=none;align=left;verticalAlign=middle;spacingTop=-1;spacingLeft=3;spacingRight=3;rotatable=0;labelPosition=right;points=[];portConstraint=eastwest;" parent="8JBp-CPKYnFsB_dmWDKy-45" vertex="1">
          <mxGeometry y="80" width="210" height="20" as="geometry" />
        </mxCell>
        <mxCell id="8JBp-CPKYnFsB_dmWDKy-59" value="+ new(String, String)" style="text;fillColor=none;align=left;verticalAlign=top;spacingLeft=4;spacingRight=4;overflow=hidden;rotatable=0;points=[[0,0.5],[1,0.5]];portConstraint=eastwest;rounded=0;glass=0;labelBackgroundColor=none;sketch=0;html=0;fontStyle=4" parent="8JBp-CPKYnFsB_dmWDKy-45" vertex="1">
          <mxGeometry y="100" width="210" height="26" as="geometry" />
        </mxCell>
        <mxCell id="8JBp-CPKYnFsB_dmWDKy-51" value="ReciboHaber" style="endArrow=block;endFill=1;html=1;edgeStyle=orthogonalEdgeStyle;align=left;verticalAlign=top;" parent="1" source="8JBp-CPKYnFsB_dmWDKy-8" target="8JBp-CPKYnFsB_dmWDKy-36" edge="1">
          <mxGeometry x="0.1111" y="-10" relative="1" as="geometry">
            <mxPoint x="1160" y="381" as="sourcePoint" />
            <mxPoint x="940" y="342" as="targetPoint" />
            <mxPoint x="-10" y="10" as="offset" />
            <Array as="points">
              <mxPoint x="220" y="640" />
              <mxPoint x="220" y="570" />
              <mxPoint x="180" y="570" />
              <mxPoint x="180" y="500" />
            </Array>
          </mxGeometry>
        </mxCell>
        <mxCell id="8JBp-CPKYnFsB_dmWDKy-52" value="1" style="edgeLabel;resizable=0;html=1;align=left;verticalAlign=bottom;" parent="8JBp-CPKYnFsB_dmWDKy-51" connectable="0" vertex="1">
          <mxGeometry x="-1" relative="1" as="geometry">
            <mxPoint x="-320" y="320" as="offset" />
          </mxGeometry>
        </mxCell>
        <mxCell id="RDeD-cK6elw_4LJPPlSX-1" value="EmpleadoContratado" style="swimlane;fontStyle=1;align=center;verticalAlign=top;childLayout=stackLayout;horizontal=1;startSize=26;horizontalStack=0;resizeParent=1;resizeParentMax=0;resizeLast=0;collapsible=1;marginBottom=0;" vertex="1" parent="1">
          <mxGeometry x="720" y="940" width="290" height="200" as="geometry" />
        </mxCell>
        <mxCell id="RDeD-cK6elw_4LJPPlSX-2" value="- numeroDeContrato: int&#xa;- medioDePago: String&#xa;" style="text;strokeColor=none;fillColor=none;align=left;verticalAlign=top;spacingLeft=4;spacingRight=4;overflow=hidden;rotatable=0;points=[[0,0.5],[1,0.5]];portConstraint=eastwest;" vertex="1" parent="RDeD-cK6elw_4LJPPlSX-1">
          <mxGeometry y="26" width="290" height="54" as="geometry" />
        </mxCell>
        <mxCell id="RDeD-cK6elw_4LJPPlSX-3" value="" style="line;strokeWidth=1;fillColor=none;align=left;verticalAlign=middle;spacingTop=-1;spacingLeft=3;spacingRight=3;rotatable=0;labelPosition=right;points=[];portConstraint=eastwest;" vertex="1" parent="RDeD-cK6elw_4LJPPlSX-1">
          <mxGeometry y="80" width="290" height="8" as="geometry" />
        </mxCell>
        <mxCell id="RDeD-cK6elw_4LJPPlSX-4" value="+new (String, String, boolean, Date, int, int, String)&#xa;+ sueldoBruto(): int&#xa;+ sueldoNeto(): int&#xa;+ retenciones(): int&#xa;+ crearReciboHaberes(): ReciboHaber&#xa;+ crearConceptos():Conceptos" style="text;strokeColor=none;fillColor=none;align=left;verticalAlign=top;spacingLeft=4;spacingRight=4;overflow=hidden;rotatable=0;points=[[0,0.5],[1,0.5]];portConstraint=eastwest;" vertex="1" parent="RDeD-cK6elw_4LJPPlSX-1">
          <mxGeometry y="88" width="290" height="112" as="geometry" />
        </mxCell>
        <mxCell id="RDeD-cK6elw_4LJPPlSX-5" value="Extends" style="endArrow=block;endSize=16;endFill=0;html=1;" edge="1" parent="1" source="RDeD-cK6elw_4LJPPlSX-1" target="8JBp-CPKYnFsB_dmWDKy-8">
          <mxGeometry x="-0.107" width="160" relative="1" as="geometry">
            <mxPoint x="730" y="711.1627906976744" as="sourcePoint" />
            <mxPoint x="550" y="702.5" as="targetPoint" />
            <Array as="points">
              <mxPoint x="400" y="1040" />
            </Array>
            <mxPoint as="offset" />
          </mxGeometry>
        </mxCell>
        <mxCell id="RDeD-cK6elw_4LJPPlSX-6" value="Conceptos" style="endArrow=block;endFill=1;html=1;edgeStyle=orthogonalEdgeStyle;align=left;verticalAlign=top;" edge="1" parent="1" source="8JBp-CPKYnFsB_dmWDKy-8" target="8JBp-CPKYnFsB_dmWDKy-45">
          <mxGeometry x="-0.0646" y="20" relative="1" as="geometry">
            <mxPoint x="1020" y="720" as="sourcePoint" />
            <mxPoint x="1190" y="793" as="targetPoint" />
            <mxPoint as="offset" />
            <Array as="points">
              <mxPoint x="-35" y="890" />
            </Array>
          </mxGeometry>
        </mxCell>
        <mxCell id="RDeD-cK6elw_4LJPPlSX-7" value="1" style="edgeLabel;resizable=0;html=1;align=left;verticalAlign=bottom;" connectable="0" vertex="1" parent="RDeD-cK6elw_4LJPPlSX-6">
          <mxGeometry x="-1" relative="1" as="geometry">
            <mxPoint x="-110" y="-403" as="offset" />
          </mxGeometry>
        </mxCell>
      </root>
    </mxGraphModel>
  </diagram>
</mxfile>
